<svg width="22" height="22" viewBox="0 0 22 22" fill="none" xmlns="http://www.w3.org/2000/svg">
<path fill-rule="evenodd" clip-rule="evenodd" d="M2.2 11C2.20016 9.3065 2.68896 7.64901 3.60777 6.22642C4.52657 4.80383 5.83634 3.67658 7.37991 2.97991C8.92348 2.28325 10.6353 2.04677 12.3099 2.29886C13.9846 2.55095 15.5509 3.28089 16.821 4.40109C18.091 5.5213 19.0109 6.98419 19.4702 8.61422C19.9295 10.2443 19.9087 11.9722 19.4103 13.5907C18.9119 15.2092 17.957 16.6495 16.6604 17.7388C15.3637 18.8281 13.7802 19.5201 12.1 19.7318V13.2H14.3C14.5917 13.2 14.8715 13.0841 15.0778 12.8778C15.2841 12.6715 15.4 12.3917 15.4 12.1C15.4 11.8083 15.2841 11.5285 15.0778 11.3222C14.8715 11.1159 14.5917 11 14.3 11H12.1V8.8C12.1 8.50826 12.2159 8.22847 12.4222 8.02218C12.6285 7.81589 12.9083 7.7 13.2 7.7H13.75C14.0417 7.7 14.3215 7.58411 14.5278 7.37782C14.7341 7.17153 14.85 6.89174 14.85 6.6C14.85 6.30826 14.7341 6.02847 14.5278 5.82218C14.3215 5.61589 14.0417 5.5 13.75 5.5H13.2C12.3248 5.5 11.4854 5.84768 10.8665 6.46655C10.2477 7.08542 9.9 7.92479 9.9 8.8V11H7.7C7.40826 11 7.12847 11.1159 6.92218 11.3222C6.71589 11.5285 6.6 11.8083 6.6 12.1C6.6 12.3917 6.71589 12.6715 6.92218 12.8778C7.12847 13.0841 7.40826 13.2 7.7 13.2H9.9V19.7318C7.77337 19.4636 5.8177 18.4286 4.4 16.8209C2.98231 15.2133 2.20004 13.1435 2.2 11ZM11 22C17.0753 22 22 17.0753 22 11C22 4.9247 17.0753 0 11 0C4.9247 0 0 4.9247 0 11C0 17.0753 4.9247 22 11 22Z" fill="white"/>
</svg>
