<svg width="21" height="19" viewBox="0 0 21 19" fill="none" xmlns="http://www.w3.org/2000/svg">
<path d="M4.77219 11.0674L4.77206 11.0674L1.60383 10.0016L1.59463 9.99888L1.58902 9.99719L1.58916 9.99688C1.57922 9.99258 1.56432 9.98642 1.54718 9.97933C1.50655 9.96252 1.45335 9.94052 1.42404 9.92591C1.33231 9.88206 1.20782 9.81572 1.07703 9.72274M4.77219 11.0674L0.417002 8.61099L0.367388 8.61719C0.367389 8.6172 0.367391 8.61721 0.367392 8.61722C0.439993 9.19791 0.837767 9.5537 1.07703 9.72274M4.77219 11.0674C4.80899 11.0797 4.84663 11.0892 4.88479 11.096M4.77219 11.0674L4.88479 11.096M1.07703 9.72274L1.106 9.68199L1.07715 9.72283C1.07711 9.7228 1.07707 9.72277 1.07703 9.72274ZM17.71 16.897L17.701 16.919C17.5724 17.2024 17.3793 17.4517 17.137 17.647C16.926 17.816 16.643 17.965 16.287 18.015C15.929 18.063 15.549 18.003 15.157 17.833C15.101 17.808 15.049 17.777 15.001 17.74M17.71 16.897L4.788 11.02C4.83097 11.0343 4.87515 11.0447 4.92 11.051M17.71 16.897L17.713 16.889M17.71 16.897L17.715 16.885M15.001 17.74L11.736 15.238M15.001 17.74L14.9706 17.7797M15.001 17.74L14.9705 17.7796M11.736 15.238L8.91 17L8.905 17.002M11.736 15.238L11.7056 15.2777L11.7331 15.2987M11.736 15.238L11.7625 15.2804L11.7331 15.2987M8.905 17.002C8.81058 17.0649 8.70839 17.1153 8.601 17.152C8.418 17.213 8.126 17.263 7.806 17.143M8.905 17.002L8.92358 17.0484L8.92836 17.0465M8.905 17.002L8.91952 17.0238L8.93273 17.0436C8.93134 17.0445 8.92995 17.0454 8.92856 17.0464C8.92849 17.0464 8.92842 17.0465 8.92836 17.0465M7.806 17.143C7.74077 17.121 7.67835 17.0915 7.62 17.055C7.508 16.985 7.413 16.893 7.33 16.789C7.17 16.585 7.024 16.287 6.885 15.849C6.774 15.493 6.267 14.255 5.764 13.053C5.48426 12.385 5.20292 11.7176 4.92 11.051M7.806 17.143L7.78844 17.1898C7.78871 17.1899 7.78898 17.19 7.78924 17.1901M7.806 17.143L7.79005 17.1904C7.78978 17.1903 7.78951 17.1902 7.78924 17.1901M4.92 11.051L4.87397 11.0705C4.87758 11.079 4.88119 11.0875 4.88479 11.096M4.92 11.051L4.91304 11.1005C4.9036 11.0992 4.89418 11.0977 4.88479 11.096M4.88479 11.096C5.16404 11.7541 5.44173 12.4129 5.71788 13.0723C6.22148 14.2757 6.72717 15.5108 6.83727 15.8639L6.83734 15.8641C6.97722 16.3049 7.12546 16.6092 7.29066 16.8198L7.29092 16.8202C7.3765 16.9274 7.47555 17.0237 7.59348 17.0974C7.6549 17.1358 7.7206 17.1669 7.78924 17.1901M4.88479 11.096L14.9706 17.7797M7.78924 17.1901C8.12308 17.315 8.42717 17.2626 8.61681 17.1994L8.61715 17.1993C8.72698 17.1618 8.83156 17.1105 8.92836 17.0465M8.92836 17.0465L8.92858 17.0464L8.92887 17.0471L8.93646 17.0424L11.7331 15.2987M11.7331 15.2987L14.9705 17.7796M14.9705 17.7796C14.9705 17.7796 14.9706 17.7796 14.9706 17.7797M14.9705 17.7796L17.7584 16.9103M14.9706 17.7797C15.0217 17.8191 15.0771 17.8521 15.1366 17.8786L15.1371 17.8789C15.5361 18.0519 15.9252 18.1139 16.2936 18.0645L16.294 18.0645C16.6602 18.0131 16.9514 17.8597 17.1683 17.686L17.1684 17.6859C17.4167 17.4857 17.6148 17.2301 17.7465 16.9396L17.7466 16.9397L17.7473 16.9379L17.7563 16.9159L17.7563 16.9159L17.7568 16.9145L17.7584 16.9103M17.7584 16.9103L17.7585 16.9102L17.7595 16.9078M17.7584 16.9103L20.8 1.57799M17.7584 16.9103L17.7589 16.909L17.7595 16.9078M17.7584 16.9103L17.7581 16.9106L17.7577 16.9114L17.7575 16.9112L17.7549 16.9138L17.7538 16.9149L17.7514 16.9173L17.7504 16.9183L17.7422 16.9101L17.7404 16.9084L17.729 16.897L17.713 16.889M17.7595 16.9078L17.7597 16.9074L17.765 16.8968V16.8941M17.7595 16.9078L17.7597 16.9073L17.7624 16.9007C17.7632 16.8985 17.7641 16.8963 17.765 16.8941M17.765 16.8941C17.7823 16.8503 17.7956 16.8051 17.805 16.7589L17.805 16.7587L20.785 1.73371L20.7851 1.73359C20.7951 1.68233 20.8001 1.63022 20.8 1.57799M17.765 16.8941V16.885V16.883H17.7185H17.717H17.715M20.8 1.57799H20.75L20.8 1.57788V1.57799ZM17.715 16.883L17.717 16.885L17.719 16.887L17.7258 16.8938L17.713 16.889M17.715 16.883V16.885M17.715 16.883L17.716 16.882L17.715 16.885M17.713 16.889L17.715 16.885M18.9344 1.91799C18.9285 1.92052 18.9226 1.92298 18.9167 1.92538L18.9163 1.92553L2.18274 8.49034C2.18266 8.49037 2.18258 8.49041 2.1825 8.49044L2.18226 8.49053L2.164 8.44399L18.9344 1.91799ZM18.9344 1.91799H18.9378L18.9484 1.9127L18.9486 1.91257C19.0081 1.8884 19.0688 1.86743 19.1304 1.84972L16.2584 16.3321C16.2338 16.3715 16.2032 16.4068 16.1678 16.4368L16.1677 16.4368C16.1421 16.4585 16.1108 16.4725 16.0776 16.4773M18.9344 1.91799L16.2 16.475C16.1667 16.5031 16.1262 16.5211 16.083 16.527M16.083 16.527L16.0789 16.4772C16.0785 16.4772 16.078 16.4772 16.0776 16.4773M16.083 16.527C15.9973 16.534 15.9113 16.5203 15.832 16.487L16.2392 3.34722M16.083 16.527L16.0763 16.4774C16.0767 16.4774 16.0771 16.4773 16.0776 16.4773M16.0776 16.4773C16.0024 16.4832 15.927 16.4715 15.8572 16.4433L10.0364 11.9806L10.4597 11.571L10.4598 11.5709L13.0727 9.05098L13.0727 9.05096C14.9921 7.19863 16.9365 5.32316 17.0861 5.18354C17.2636 5.01813 17.4648 4.79588 17.5385 4.50632L17.5385 4.50626C17.5756 4.35964 17.5748 4.20599 17.536 4.05981C17.5107 3.89316 17.4394 3.73689 17.3299 3.60865C17.2199 3.47973 17.0758 3.38433 16.9142 3.33335C16.6106 3.23539 16.3308 3.31873 16.2392 3.34722M16.2392 3.34722C16.2392 3.34721 16.2393 3.3472 16.2393 3.3472L16.254 3.39499L16.2391 3.34724C16.2392 3.34724 16.2392 3.34723 16.2392 3.34722ZM16.2392 3.34722C16.1056 3.38833 15.988 3.4436 15.9145 3.48132C15.8716 3.50243 15.8297 3.52541 15.7888 3.55018L15.7806 3.55426L15.7806 3.55417L15.7777 3.55584L5.42637 9.61583C5.38054 9.58938 5.33217 9.56752 5.28197 9.5506L5.28196 9.5506L2.15974 8.49926L16.2392 3.34722ZM1.60867 6.99725L1.60511 6.99903L19.255 0.256986C19.003 0.276986 18.769 0.338986 18.612 0.388986L18.5969 0.341323C18.5969 0.34133 18.5969 0.341337 18.5968 0.341344C18.5077 0.369596 18.4197 0.401401 18.3331 0.436682L18.3331 0.436646L18.3313 0.437468L18.3215 0.441926L1.60874 6.99744L1.60867 6.99725ZM7.68227 13.6323C7.30224 12.712 6.91816 11.7934 6.53005 10.8765L6.52999 10.8764L6.51228 10.8349L12.6325 7.25191L11.9613 7.89899L11.9613 7.89901L9.34828 10.421L9.34827 10.421L8.18404 11.5453C8.1839 11.5454 8.18377 11.5455 8.18363 11.5457C8.0517 11.6679 7.96493 11.8303 7.9376 12.0083C7.93759 12.0083 7.93759 12.0084 7.93758 12.0084L7.68227 13.6323ZM9.07539 15.0687L9.32933 13.4548L10.3773 14.2577L9.07539 15.0687Z" fill="white" stroke="white" stroke-width="0.1"/>
</svg>
