<svg width="24" height="20" viewBox="0 0 24 20" fill="none" xmlns="http://www.w3.org/2000/svg">
<path d="M4.60815 2.23657C7.77558 2.07886 10.239 2 11.999 2C13.759 2 16.2236 2.07886 19.3927 2.23714C20.222 2.27853 21.0081 2.61947 21.605 3.19664C22.202 3.77381 22.5692 4.54799 22.6384 5.37543C22.7836 7.10914 22.8561 8.636 22.8561 9.95657C22.8561 11.2931 22.7819 12.8411 22.6333 14.6011C22.5643 15.4191 22.2042 16.1851 21.6183 16.7601C21.0325 17.335 20.2598 17.6807 19.4407 17.7343C16.7316 17.9114 14.251 18 11.999 18C9.74758 18 7.26758 17.9114 4.56015 17.7343C3.74134 17.6807 2.96888 17.3353 2.38307 16.7607C1.79726 16.1861 1.43695 15.4205 1.36758 14.6029C1.2173 12.8297 1.14187 11.2806 1.14187 9.95657C1.14187 8.648 1.21558 7.12057 1.36187 5.37371C1.4314 4.54648 1.79871 3.77257 2.39561 3.19564C2.99251 2.6187 3.77846 2.27793 4.60758 2.23657H4.60815Z" stroke="white" stroke-width="2.28571" stroke-linejoin="round"/>
<path d="M10.2858 7.49108V12.5174C10.2858 12.6059 10.3098 12.6928 10.3552 12.7687C10.4006 12.8447 10.4657 12.907 10.5437 12.9489C10.6216 12.9908 10.7095 13.0108 10.7979 13.0068C10.8864 13.0027 10.972 12.9748 11.0458 12.9259L14.8156 10.4345C14.8829 10.3901 14.9383 10.3297 14.9767 10.2587C15.0151 10.1878 15.0354 10.1084 15.0357 10.0277C15.0361 9.94702 15.0164 9.86749 14.9786 9.7962C14.9408 9.72491 14.886 9.66407 14.819 9.61908L11.0487 7.08423C10.975 7.03471 10.8893 7.00616 10.8006 7.00162C10.7119 6.99708 10.6237 7.01673 10.5454 7.05846C10.467 7.10019 10.4015 7.16243 10.3558 7.23854C10.31 7.31464 10.2859 7.40174 10.2858 7.49051V7.49108Z" stroke="white" stroke-width="1.95943" stroke-linejoin="round"/>
</svg>
